<?xml version="1.0" encoding="UTF-8"?>
<!DOCTYPE svg PUBLIC "-//W3C//DTD SVG 1.1//EN" "http://www.w3.org/Graphics/SVG/1.1/DTD/svg11.dtd">
<svg xmlns="http://www.w3.org/2000/svg" version="1.1" width="84px" height="93px" style="shape-rendering:geometricPrecision; text-rendering:geometricPrecision; image-rendering:optimizeQuality; fill-rule:evenodd; clip-rule:evenodd" xmlns:xlink="http://www.w3.org/1999/xlink">
<g><path style="opacity:1" fill="#818181" d="M 82.5,1.5 C 57.1667,1.5 31.8333,1.5 6.5,1.5C 6.5,4.16667 6.5,6.83333 6.5,9.5C 5.52333,6.7131 5.19,3.7131 5.5,0.5C 31.3388,0.168895 57.0054,0.502228 82.5,1.5 Z"/></g>
<g><path style="opacity:1" fill="#f9f9f9" d="M 82.5,1.5 C 82.6646,4.51838 82.498,7.51838 82,10.5C 65.2806,33.7127 48.7806,57.046 32.5,80.5C 31.9569,80.56 31.6236,80.8933 31.5,81.5C 48.4869,82.4995 65.4869,82.8328 82.5,82.5C 82.5,85.5 82.5,88.5 82.5,91.5C 55.5,91.5 28.5,91.5 1.5,91.5C 1.14631,87.3628 1.64631,83.3628 3,79.5C 19.5,56.3333 36,33.1667 52.5,10C 37.1703,9.50008 21.837,9.33341 6.5,9.5C 6.5,6.83333 6.5,4.16667 6.5,1.5C 31.8333,1.5 57.1667,1.5 82.5,1.5 Z"/></g>
<g><path style="opacity:1" fill="#0a0a0a" d="M 62.5,7.5 C 66.5546,7.17575 70.5546,7.50909 74.5,8.5C 56.5875,33.3245 38.9208,58.3245 21.5,83.5C 17.5,84.8333 13.5,84.8333 9.5,83.5C 27.1919,58.1487 44.8586,32.8153 62.5,7.5 Z"/></g>
<g><path style="opacity:1" fill="#757575" d="M 32.5,80.5 C 49.1667,81.1667 65.8333,81.8333 82.5,82.5C 65.4869,82.8328 48.4869,82.4995 31.5,81.5C 31.6236,80.8933 31.9569,80.56 32.5,80.5 Z"/></g>
</svg>
